<svg xmlns="http://www.w3.org/2000/svg" xmlns:xlink="http://www.w3.org/1999/xlink" width="3402" zoomAndPan="magnify" viewBox="0 0 2551.5 850.499975" height="1134" preserveAspectRatio="xMidYMid meet" version="1.0"><defs><g/><clipPath id="6829c2d8a3"><path d="M 0.5 0 L 2550.5 0 L 2550.5 850 L 0.5 850 Z M 0.5 0 " clip-rule="nonzero"/></clipPath><clipPath id="8e3c6e135a"><path d="M 0.5 0 L 2550.5 0 L 2550.5 850 L 0.5 850 Z M 0.5 0 " clip-rule="nonzero"/></clipPath><clipPath id="dbc1187cdd"><path d="M 1297.355469 112.496094 L 2537 112.496094 L 2537 768.640625 L 1297.355469 768.640625 Z M 1297.355469 112.496094 " clip-rule="nonzero"/></clipPath><clipPath id="680af5adb1"><path d="M 2536.203125 177.957031 L 2536.203125 703.183594 C 2536.203125 720.542969 2529.308594 737.191406 2517.03125 749.46875 C 2504.753906 761.746094 2488.105469 768.640625 2470.742188 768.640625 L 1362.816406 768.640625 C 1345.453125 768.640625 1328.804688 761.746094 1316.527344 749.46875 C 1304.253906 737.191406 1297.355469 720.542969 1297.355469 703.183594 L 1297.355469 177.957031 C 1297.355469 160.59375 1304.253906 143.945312 1316.527344 131.667969 C 1328.804688 119.390625 1345.453125 112.496094 1362.816406 112.496094 L 2470.742188 112.496094 C 2488.105469 112.496094 2504.753906 119.390625 2517.03125 131.667969 C 2529.308594 143.945312 2536.203125 160.59375 2536.203125 177.957031 Z M 2536.203125 177.957031 " clip-rule="nonzero"/></clipPath><clipPath id="e89c1f3625"><path d="M 0.355469 0.496094 L 1239 0.496094 L 1239 656.640625 L 0.355469 656.640625 Z M 0.355469 0.496094 " clip-rule="nonzero"/></clipPath><clipPath id="83962f0e32"><path d="M 1239.203125 65.957031 L 1239.203125 591.183594 C 1239.203125 608.542969 1232.308594 625.191406 1220.03125 637.46875 C 1207.753906 649.746094 1191.105469 656.640625 1173.742188 656.640625 L 65.816406 656.640625 C 48.453125 656.640625 31.804688 649.746094 19.527344 637.46875 C 7.253906 625.191406 0.355469 608.542969 0.355469 591.183594 L 0.355469 65.957031 C 0.355469 48.59375 7.253906 31.945312 19.527344 19.667969 C 31.804688 7.390625 48.453125 0.496094 65.816406 0.496094 L 1173.742188 0.496094 C 1191.105469 0.496094 1207.753906 7.390625 1220.03125 19.667969 C 1232.308594 31.945312 1239.203125 48.59375 1239.203125 65.957031 Z M 1239.203125 65.957031 " clip-rule="nonzero"/></clipPath><clipPath id="4e3aa8e493"><rect x="0" width="1240" y="0" height="657"/></clipPath><clipPath id="ac6799883c"><path d="M 0.5 77 L 2435 77 L 2435 773 L 0.5 773 Z M 0.5 77 " clip-rule="nonzero"/></clipPath><clipPath id="4d9a991321"><rect x="0" width="2435" y="0" height="696"/></clipPath><clipPath id="6d30fb8637"><rect x="0" width="2551" y="0" height="850"/></clipPath></defs><g clip-path="url(#6829c2d8a3)"><path fill="#ffffff" d="M 0.5 0 L 2550.5 0 L 2550.5 850 L 0.5 850 Z M 0.5 0 " fill-opacity="1" fill-rule="nonzero"/><g transform="matrix(1, 0, 0, 1, 0.000000000000000056, 0)"><g clip-path="url(#6d30fb8637)"><g clip-path="url(#8e3c6e135a)"><path fill="#000000" d="M 0.5 0 L 2550.820312 0 L 2550.820312 850.105469 L 0.5 850.105469 Z M 0.5 0 " fill-opacity="1" fill-rule="nonzero"/></g><g clip-path="url(#dbc1187cdd)"><g clip-path="url(#680af5adb1)"><g transform="matrix(1, 0, 0, 1, 1297, 112)"><g clip-path="url(#4e3aa8e493)"><g clip-path="url(#e89c1f3625)"><g clip-path="url(#83962f0e32)"><path fill="#67b943" d="M 0.355469 0.496094 L 1238.320312 0.496094 L 1238.320312 656.640625 L 0.355469 656.640625 Z M 0.355469 0.496094 " fill-opacity="1" fill-rule="nonzero"/></g></g></g></g></g></g><g clip-path="url(#ac6799883c)"><g transform="matrix(1, 0, 0, 1, 0.000000000000000056, 77)"><g clip-path="url(#4d9a991321)"><g fill="#ffffff" fill-opacity="1"><g transform="translate(-9.853863, 550.362548)"><g><path d="M 158.15625 6.4375 C 132.957031 6.4375 110.609375 2.753906 91.109375 -4.609375 C 71.609375 -11.984375 55.742188 -22.664062 43.515625 -36.65625 C 31.296875 -50.65625 23.601562 -67.453125 20.4375 -87.046875 L 99.09375 -97.6875 C 102.632812 -83.507812 109.441406 -72.78125 119.515625 -65.5 C 129.597656 -58.21875 143.035156 -54.578125 159.828125 -54.578125 C 175.691406 -54.578125 188.195312 -57.609375 197.34375 -63.671875 C 206.488281 -69.742188 211.0625 -77.445312 211.0625 -86.78125 C 211.0625 -94.800781 207.75 -101.375 201.125 -106.5 C 194.5 -111.632812 184.5625 -115.601562 171.3125 -118.40625 L 117.84375 -129.046875 C 87.988281 -135.203125 65.59375 -145.648438 50.65625 -160.390625 C 35.726562 -175.128906 28.265625 -194.164062 28.265625 -217.5 C 28.265625 -237.09375 33.628906 -254.070312 44.359375 -268.4375 C 55.097656 -282.800781 70.21875 -293.898438 89.71875 -301.734375 C 109.21875 -309.578125 132.03125 -313.5 158.15625 -313.5 C 183.15625 -313.5 204.800781 -309.953125 223.09375 -302.859375 C 241.382812 -295.773438 256.078125 -285.703125 267.171875 -272.640625 C 278.273438 -259.578125 285.320312 -244.179688 288.3125 -226.453125 L 213.578125 -216.09375 C 210.960938 -227.101562 205.128906 -236.109375 196.078125 -243.109375 C 187.023438 -250.109375 174.941406 -253.609375 159.828125 -253.609375 C 145.835938 -253.609375 134.316406 -250.664062 125.265625 -244.78125 C 116.210938 -238.90625 111.6875 -231.300781 111.6875 -221.96875 C 111.6875 -214.132812 114.765625 -207.554688 120.921875 -202.234375 C 127.078125 -196.921875 137.15625 -192.863281 151.15625 -190.0625 L 207.140625 -178.859375 C 237.367188 -172.890625 259.804688 -163 274.453125 -149.1875 C 289.109375 -135.382812 296.4375 -117.378906 296.4375 -95.171875 C 296.4375 -74.828125 290.554688 -57.050781 278.796875 -41.84375 C 267.035156 -26.632812 250.75 -14.785156 229.9375 -6.296875 C 209.132812 2.191406 185.207031 6.4375 158.15625 6.4375 Z M 158.15625 6.4375 "/></g></g></g><g fill="#ffffff" fill-opacity="1"><g transform="translate(282.633878, 550.362548)"><g><path d="M 173.265625 6.15625 C 142.285156 6.15625 115.410156 -0.515625 92.640625 -13.859375 C 69.878906 -27.203125 52.296875 -45.863281 39.890625 -69.84375 C 27.484375 -93.820312 21.28125 -121.671875 21.28125 -153.390625 C 21.28125 -185.304688 27.484375 -213.300781 39.890625 -237.375 C 52.296875 -261.445312 69.878906 -280.148438 92.640625 -293.484375 C 115.410156 -306.828125 142.285156 -313.5 173.265625 -313.5 C 192.109375 -313.5 209.414062 -311.023438 225.1875 -306.078125 C 240.957031 -301.140625 254.90625 -294.003906 267.03125 -284.671875 C 279.164062 -275.335938 289.101562 -264.09375 296.84375 -250.9375 C 304.59375 -237.78125 309.773438 -222.992188 312.390625 -206.578125 L 234.015625 -195.375 C 232.328125 -203.40625 229.800781 -210.59375 226.4375 -216.9375 C 223.082031 -223.28125 218.882812 -228.738281 213.84375 -233.3125 C 208.8125 -237.882812 202.984375 -241.378906 196.359375 -243.796875 C 189.734375 -246.222656 182.316406 -247.4375 174.109375 -247.4375 C 159.367188 -247.4375 147.003906 -243.519531 137.015625 -235.6875 C 127.035156 -227.851562 119.429688 -216.890625 114.203125 -202.796875 C 108.984375 -188.710938 106.375 -172.335938 106.375 -153.671875 C 106.375 -135.203125 108.984375 -118.921875 114.203125 -104.828125 C 119.429688 -90.734375 127.035156 -79.722656 137.015625 -71.796875 C 147.003906 -63.867188 159.367188 -59.90625 174.109375 -59.90625 C 182.316406 -59.90625 189.734375 -61.160156 196.359375 -63.671875 C 202.984375 -66.191406 208.859375 -69.785156 213.984375 -74.453125 C 219.117188 -79.117188 223.410156 -84.765625 226.859375 -91.390625 C 230.316406 -98.015625 232.789062 -105.523438 234.28125 -113.921875 L 312.671875 -102.453125 C 310.242188 -85.835938 305.15625 -70.90625 297.40625 -57.65625 C 289.664062 -44.40625 279.726562 -32.972656 267.59375 -23.359375 C 255.46875 -13.753906 241.425781 -6.429688 225.46875 -1.390625 C 209.507812 3.640625 192.109375 6.15625 173.265625 6.15625 Z M 173.265625 6.15625 "/></g></g></g><g fill="#ffffff" fill-opacity="1"><g transform="translate(597.513173, 550.362548)"><g><path d="M 122.328125 5.875 C 102.546875 5.875 84.816406 2.425781 69.140625 -4.46875 C 53.460938 -11.375 41.144531 -21.6875 32.1875 -35.40625 C 23.226562 -49.125 18.75 -66.15625 18.75 -86.5 C 18.75 -103.851562 21.921875 -118.3125 28.265625 -129.875 C 34.609375 -141.445312 43.285156 -150.78125 54.296875 -157.875 C 65.304688 -164.96875 77.851562 -170.332031 91.9375 -173.96875 C 106.03125 -177.601562 120.820312 -180.171875 136.3125 -181.671875 C 154.414062 -183.535156 168.972656 -185.257812 179.984375 -186.84375 C 190.992188 -188.425781 199.015625 -190.894531 204.046875 -194.25 C 209.085938 -197.613281 211.609375 -202.65625 211.609375 -209.375 L 211.609375 -210.78125 C 211.609375 -219.363281 209.695312 -226.6875 205.875 -232.75 C 202.050781 -238.8125 196.5 -243.472656 189.21875 -246.734375 C 181.945312 -250.003906 173.082031 -251.640625 162.625 -251.640625 C 151.988281 -251.640625 142.703125 -250.003906 134.765625 -246.734375 C 126.835938 -243.472656 120.398438 -239.085938 115.453125 -233.578125 C 110.515625 -228.078125 107.019531 -221.875 104.96875 -214.96875 L 27.984375 -224.765625 C 32.273438 -243.429688 40.484375 -259.390625 52.609375 -272.640625 C 64.742188 -285.890625 80.234375 -296.007812 99.078125 -303 C 117.929688 -310 139.394531 -313.5 163.46875 -313.5 C 181.007812 -313.5 197.664062 -311.445312 213.4375 -307.34375 C 229.207031 -303.238281 243.25 -296.894531 255.5625 -288.3125 C 267.875 -279.726562 277.53125 -268.859375 284.53125 -255.703125 C 291.53125 -242.546875 295.03125 -226.820312 295.03125 -208.53125 L 295.03125 0 L 215.25 0 L 215.25 -43.109375 L 212.734375 -43.109375 C 207.691406 -33.398438 201.019531 -24.859375 192.71875 -17.484375 C 184.414062 -10.117188 174.476562 -4.382812 162.90625 -0.28125 C 151.34375 3.820312 137.816406 5.875 122.328125 5.875 Z M 145.828125 -52.625 C 159.078125 -52.625 170.644531 -55.234375 180.53125 -60.453125 C 190.425781 -65.679688 198.171875 -72.679688 203.765625 -81.453125 C 209.367188 -90.222656 212.171875 -100.113281 212.171875 -111.125 L 212.171875 -143.875 C 209.554688 -142.382812 205.914062 -140.890625 201.25 -139.390625 C 196.59375 -137.898438 191.273438 -136.59375 185.296875 -135.46875 C 179.328125 -134.351562 173.3125 -133.328125 167.25 -132.390625 C 161.1875 -131.460938 155.632812 -130.625 150.59375 -129.875 C 140.519531 -128.382812 131.5625 -126.003906 123.71875 -122.734375 C 115.882812 -119.472656 109.820312 -115.085938 105.53125 -109.578125 C 101.238281 -104.078125 99.09375 -97.222656 99.09375 -89.015625 C 99.09375 -81.171875 101.097656 -74.539062 105.109375 -69.125 C 109.117188 -63.71875 114.625 -59.613281 121.625 -56.8125 C 128.625 -54.019531 136.691406 -52.625 145.828125 -52.625 Z M 145.828125 -52.625 "/></g></g></g><g fill="#ffffff" fill-opacity="1"><g transform="translate(903.155627, 550.362548)"><g><path d="M 117.84375 -177.46875 L 117.84375 0 L 34.421875 0 L 34.421875 -309.03125 L 113.921875 -309.03125 L 115.046875 -231.203125 L 108.046875 -231.203125 C 116.441406 -257.328125 129.082031 -277.570312 145.96875 -291.9375 C 162.863281 -306.3125 184.5625 -313.5 211.0625 -313.5 C 232.519531 -313.5 251.269531 -308.832031 267.3125 -299.5 C 283.363281 -290.175781 295.773438 -276.742188 304.546875 -259.203125 C 313.316406 -241.660156 317.703125 -220.570312 317.703125 -195.9375 L 317.703125 0 L 234.28125 0 L 234.28125 -181.109375 C 234.28125 -200.703125 229.335938 -215.957031 219.453125 -226.875 C 209.566406 -237.789062 195.757812 -243.25 178.03125 -243.25 C 166.269531 -243.25 155.863281 -240.679688 146.8125 -235.546875 C 137.757812 -230.410156 130.664062 -222.988281 125.53125 -213.28125 C 120.40625 -203.582031 117.84375 -191.644531 117.84375 -177.46875 Z M 117.84375 -177.46875 "/></g></g></g><g fill="#ffffff" fill-opacity="1"><g transform="translate(1231.748857, 550.362548)"><g/></g></g><g fill="#ffffff" fill-opacity="1"><g transform="translate(1341.190167, 550.362548)"><g><path d="M 148.921875 5.3125 C 124.472656 5.3125 102.632812 -0.9375 83.40625 -13.4375 C 64.1875 -25.9375 49.023438 -44.035156 37.921875 -67.734375 C 26.828125 -91.429688 21.28125 -120.265625 21.28125 -154.234375 C 21.28125 -188.753906 26.96875 -217.816406 38.34375 -241.421875 C 49.726562 -265.023438 65.03125 -282.9375 84.25 -295.15625 C 103.46875 -307.382812 124.835938 -313.5 148.359375 -313.5 C 164.960938 -313.5 179.050781 -310.789062 190.625 -305.375 C 202.195312 -299.96875 211.757812 -293.113281 219.3125 -284.8125 C 226.875 -276.507812 232.800781 -267.878906 237.09375 -258.921875 L 239.328125 -258.921875 L 239.328125 -417.078125 L 322.734375 -417.078125 L 322.734375 0 L 240.453125 0 L 240.453125 -48.984375 L 237.375 -48.984375 C 233.082031 -40.023438 227.0625 -31.394531 219.3125 -23.09375 C 211.570312 -14.789062 201.960938 -7.976562 190.484375 -2.65625 C 179.003906 2.65625 165.148438 5.3125 148.921875 5.3125 Z M 173.546875 -61.859375 C 187.910156 -61.859375 200.128906 -65.726562 210.203125 -73.46875 C 220.285156 -81.21875 228.03125 -91.992188 233.4375 -105.796875 C 238.851562 -119.609375 241.5625 -135.847656 241.5625 -154.515625 C 241.5625 -173.171875 238.898438 -189.359375 233.578125 -203.078125 C 228.265625 -216.796875 220.519531 -227.429688 210.34375 -234.984375 C 200.175781 -242.546875 187.910156 -246.328125 173.546875 -246.328125 C 159.367188 -246.328125 147.285156 -242.5 137.296875 -234.84375 C 127.316406 -227.195312 119.757812 -216.46875 114.625 -202.65625 C 109.488281 -188.84375 106.921875 -172.796875 106.921875 -154.515625 C 106.921875 -136.035156 109.488281 -119.84375 114.625 -105.9375 C 119.757812 -92.039062 127.316406 -81.21875 137.296875 -73.46875 C 147.285156 -65.726562 159.367188 -61.859375 173.546875 -61.859375 Z M 173.546875 -61.859375 "/></g></g></g><g fill="#ffffff" fill-opacity="1"><g transform="translate(1674.821375, 550.362548)"><g><path d="M 174.390625 6.15625 C 142.847656 6.15625 115.644531 -0.375 92.78125 -13.4375 C 69.925781 -26.5 52.296875 -44.972656 39.890625 -68.859375 C 27.484375 -92.742188 21.28125 -120.828125 21.28125 -153.109375 C 21.28125 -185.023438 27.4375 -212.972656 39.75 -236.953125 C 52.0625 -260.929688 69.414062 -279.679688 91.8125 -293.203125 C 114.207031 -306.734375 140.425781 -313.5 170.46875 -313.5 C 191.175781 -313.5 210.394531 -310.140625 228.125 -303.421875 C 245.851562 -296.703125 261.390625 -286.765625 274.734375 -273.609375 C 288.078125 -260.453125 298.429688 -244.03125 305.796875 -224.34375 C 313.171875 -204.664062 316.859375 -181.945312 316.859375 -156.1875 L 316.859375 -132.953125 L 54.578125 -132.953125 L 54.578125 -185.578125 L 276.28125 -185.578125 L 237.375 -171.875 C 237.375 -187.914062 234.851562 -201.8125 229.8125 -213.5625 C 224.769531 -225.320312 217.347656 -234.421875 207.546875 -240.859375 C 197.753906 -247.304688 185.675781 -250.53125 171.3125 -250.53125 C 156.9375 -250.53125 144.710938 -247.265625 134.640625 -240.734375 C 124.566406 -234.203125 116.867188 -225.242188 111.546875 -213.859375 C 106.222656 -202.472656 103.5625 -189.410156 103.5625 -174.671875 L 103.5625 -137.71875 C 103.5625 -120.363281 106.546875 -105.617188 112.515625 -93.484375 C 118.492188 -81.359375 126.941406 -72.171875 137.859375 -65.921875 C 148.773438 -59.671875 161.507812 -56.546875 176.0625 -56.546875 C 185.957031 -56.546875 194.960938 -57.988281 203.078125 -60.875 C 211.191406 -63.769531 218.09375 -67.96875 223.78125 -73.46875 C 229.476562 -78.976562 233.820312 -85.742188 236.8125 -93.765625 L 312.671875 -82.859375 C 307.816406 -64.941406 299.085938 -49.3125 286.484375 -35.96875 C 273.890625 -22.625 258.125 -12.265625 239.1875 -4.890625 C 220.25 2.472656 198.648438 6.15625 174.390625 6.15625 Z M 174.390625 6.15625 "/></g></g></g><g fill="#ffffff" fill-opacity="1"><g transform="translate(1993.619093, 550.362548)"><g><path d="M 122.328125 5.875 C 102.546875 5.875 84.816406 2.425781 69.140625 -4.46875 C 53.460938 -11.375 41.144531 -21.6875 32.1875 -35.40625 C 23.226562 -49.125 18.75 -66.15625 18.75 -86.5 C 18.75 -103.851562 21.921875 -118.3125 28.265625 -129.875 C 34.609375 -141.445312 43.285156 -150.78125 54.296875 -157.875 C 65.304688 -164.96875 77.851562 -170.332031 91.9375 -173.96875 C 106.03125 -177.601562 120.820312 -180.171875 136.3125 -181.671875 C 154.414062 -183.535156 168.972656 -185.257812 179.984375 -186.84375 C 190.992188 -188.425781 199.015625 -190.894531 204.046875 -194.25 C 209.085938 -197.613281 211.609375 -202.65625 211.609375 -209.375 L 211.609375 -210.78125 C 211.609375 -219.363281 209.695312 -226.6875 205.875 -232.75 C 202.050781 -238.8125 196.5 -243.472656 189.21875 -246.734375 C 181.945312 -250.003906 173.082031 -251.640625 162.625 -251.640625 C 151.988281 -251.640625 142.703125 -250.003906 134.765625 -246.734375 C 126.835938 -243.472656 120.398438 -239.085938 115.453125 -233.578125 C 110.515625 -228.078125 107.019531 -221.875 104.96875 -214.96875 L 27.984375 -224.765625 C 32.273438 -243.429688 40.484375 -259.390625 52.609375 -272.640625 C 64.742188 -285.890625 80.234375 -296.007812 99.078125 -303 C 117.929688 -310 139.394531 -313.5 163.46875 -313.5 C 181.007812 -313.5 197.664062 -311.445312 213.4375 -307.34375 C 229.207031 -303.238281 243.25 -296.894531 255.5625 -288.3125 C 267.875 -279.726562 277.53125 -268.859375 284.53125 -255.703125 C 291.53125 -242.546875 295.03125 -226.820312 295.03125 -208.53125 L 295.03125 0 L 215.25 0 L 215.25 -43.109375 L 212.734375 -43.109375 C 207.691406 -33.398438 201.019531 -24.859375 192.71875 -17.484375 C 184.414062 -10.117188 174.476562 -4.382812 162.90625 -0.28125 C 151.34375 3.820312 137.816406 5.875 122.328125 5.875 Z M 145.828125 -52.625 C 159.078125 -52.625 170.644531 -55.234375 180.53125 -60.453125 C 190.425781 -65.679688 198.171875 -72.679688 203.765625 -81.453125 C 209.367188 -90.222656 212.171875 -100.113281 212.171875 -111.125 L 212.171875 -143.875 C 209.554688 -142.382812 205.914062 -140.890625 201.25 -139.390625 C 196.59375 -137.898438 191.273438 -136.59375 185.296875 -135.46875 C 179.328125 -134.351562 173.3125 -133.328125 167.25 -132.390625 C 161.1875 -131.460938 155.632812 -130.625 150.59375 -129.875 C 140.519531 -128.382812 131.5625 -126.003906 123.71875 -122.734375 C 115.882812 -119.472656 109.820312 -115.085938 105.53125 -109.578125 C 101.238281 -104.078125 99.09375 -97.222656 99.09375 -89.015625 C 99.09375 -81.171875 101.097656 -74.539062 105.109375 -69.125 C 109.117188 -63.71875 114.625 -59.613281 121.625 -56.8125 C 128.625 -54.019531 136.691406 -52.625 145.828125 -52.625 Z M 145.828125 -52.625 "/></g></g></g><g fill="#ffffff" fill-opacity="1"><g transform="translate(2299.261548, 550.362548)"><g><path d="M 117.84375 -417.078125 L 117.84375 0 L 34.421875 0 L 34.421875 -417.078125 Z M 117.84375 -417.078125 "/></g></g></g></g></g></g></g></g></g></svg>